<svg height="512pt" viewBox="0 -31 512 512" width="512pt" xmlns="http://www.w3.org/2000/svg"><path d="m497 0h-482c-8.285156 0-15 6.714844-15 15v420c0 8.285156 6.714844 15 15 15h482c8.285156 0 15-6.714844 15-15v-420c0-8.285156-6.714844-15-15-15zm-15 90h-61v-60h61zm-452 330v-390h361v75c0 8.285156 6.714844 15 15 15h15v210h-15c-8.285156 0-15 6.714844-15 15s6.714844 15 15 15h30c8.285156 0 15-6.714844 15-15v-225h31v300zm0 0"/><path d="m226 60c-90.980469 0-165 74.019531-165 165s74.019531 165 165 165 165-74.019531 165-165-74.019531-165-165-165zm0 300c-74.4375 0-135-60.5625-135-135s60.5625-135 135-135 135 60.5625 135 135-60.5625 135-135 135zm0 0"/><path d="m226 300c-41.355469 0-75-33.644531-75-75 0-8.285156-6.714844-15-15-15s-15 6.714844-15 15c0 57.898438 47.101562 105 105 105 8.285156 0 15-6.714844 15-15s-6.714844-15-15-15zm0 0"/><path d="m226 120c-8.285156 0-15 6.714844-15 15s6.714844 15 15 15c41.355469 0 75 33.644531 75 75 0 8.285156 6.714844 15 15 15s15-6.714844 15-15c0-57.898438-47.101562-105-105-105zm0 0"/><path d="m226 180c-24.8125 0-45 20.1875-45 45s20.1875 45 45 45 45-20.1875 45-45-20.1875-45-45-45zm0 60c-8.269531 0-15-6.730469-15-15s6.730469-15 15-15 15 6.730469 15 15-6.730469 15-15 15zm0 0"/><path d="m91 375c0 8.285156-6.714844 15-15 15s-15-6.714844-15-15 6.714844-15 15-15 15 6.714844 15 15zm0 0"/><path d="m91 75c0 8.285156-6.714844 15-15 15s-15-6.714844-15-15 6.714844-15 15-15 15 6.714844 15 15zm0 0"/></svg>